<svg width="17" height="17" viewBox="0 0 17 17" fill="none" xmlns="http://www.w3.org/2000/svg">
<g id="cil:animal">
<path id="Vector" d="M12.711 10.1129C12.4567 9.19119 11.9071 8.37838 11.1465 7.79914C10.3858 7.2199 9.45611 6.90622 8.50001 6.90622C7.54391 6.90622 6.61422 7.2199 5.85355 7.79914C5.09289 8.37838 4.54328 9.19119 4.28903 10.1129L3.68314 12.3093C3.57435 12.7036 3.55812 13.1178 3.63571 13.5194C3.7133 13.9211 3.88262 14.2994 4.13045 14.6249C4.37829 14.9503 4.69796 15.2142 5.06452 15.3958C5.43108 15.5774 5.83464 15.6719 6.24373 15.6719H10.7563C11.1654 15.6719 11.5689 15.5774 11.9355 15.3958C12.3021 15.2142 12.6217 14.9503 12.8696 14.6249C13.1174 14.2994 13.2867 13.9211 13.3643 13.5194C13.4419 13.1178 13.4257 12.7036 13.3169 12.3093L12.711 10.1129ZM12.0243 13.981C11.8762 14.177 11.6846 14.3358 11.4645 14.4449C11.2444 14.554 11.0019 14.6103 10.7563 14.6094H6.24373C5.99827 14.6094 5.75613 14.5527 5.53619 14.4437C5.31625 14.3347 5.12445 14.1764 4.97574 13.9812C4.82703 13.7859 4.72544 13.5589 4.67889 13.3179C4.63234 13.0769 4.64208 12.8284 4.70735 12.5918L5.31324 10.3954C5.50566 9.69793 5.92159 9.08282 6.49724 8.64447C7.07289 8.20611 7.77646 7.96873 8.50001 7.96873C9.22356 7.96873 9.92713 8.20611 10.5028 8.64447C11.0784 9.08282 11.4944 9.69793 11.6868 10.3954L12.2927 12.5918C12.3589 12.8283 12.3691 13.077 12.3225 13.3182C12.2759 13.5593 12.1738 13.7863 12.0243 13.9812V13.981Z" fill="black"/>
<path id="Vector_2" d="M4.85098 7.64703C4.94342 7.0693 4.82083 6.45082 4.50567 5.9051C4.1905 5.35937 3.7161 4.94397 3.16968 4.73515C2.5845 4.51166 1.98764 4.54726 1.48847 4.83533C0.496127 5.40828 0.234985 6.82037 0.906451 7.98315C1.22152 8.52887 1.69596 8.94438 2.24238 9.15309C2.48443 9.24742 2.74172 9.29661 3.0015 9.29822C3.32515 9.29939 3.64332 9.21474 3.92359 9.05288C4.42246 8.76478 4.75184 8.2655 4.85098 7.64703ZM3.80176 7.47909C3.75428 7.77556 3.60885 8.00768 3.39227 8.13273C3.17568 8.25777 2.90196 8.2676 2.62139 8.16052C2.30221 8.03863 2.01992 7.78695 1.82648 7.4519C1.4546 6.80776 1.54299 6.0308 2.01972 5.75548C2.13956 5.68747 2.27529 5.65244 2.41308 5.65395C2.54233 5.65529 2.67025 5.68023 2.79053 5.72756C3.10971 5.84951 3.392 6.10116 3.58544 6.43621C3.77889 6.77127 3.85568 7.14171 3.80176 7.47909Z" fill="black"/>
<path id="Vector_3" d="M4.96603 5.44587C5.34329 5.74745 5.7741 5.9045 6.20976 5.90447C6.34025 5.90443 6.47037 5.89039 6.59787 5.8626C7.71758 5.61919 8.39648 4.35375 8.11127 3.04173C7.97746 2.42594 7.65213 1.8857 7.19526 1.52043C6.70601 1.1293 6.12648 0.981243 5.56343 1.1037C4.44375 1.34707 3.76485 2.61251 4.05003 3.92453C4.18387 4.54035 4.50919 5.0806 4.96603 5.44587ZM5.78907 2.14196C5.8407 2.13083 5.89338 2.12526 5.94619 2.12536C6.14368 2.12536 6.34682 2.20262 6.53179 2.35051C6.79865 2.56384 6.99086 2.88953 7.073 3.26761C7.23105 3.99459 6.91011 4.70756 6.37219 4.8245C6.12778 4.87763 5.86401 4.80365 5.62953 4.61615C5.36268 4.40279 5.17047 4.0771 5.08832 3.69905C4.93024 2.97187 5.25118 2.2589 5.78907 2.14196Z" fill="black"/>
<path id="Vector_4" d="M15.5115 4.83533C15.0126 4.54726 14.4154 4.51166 13.8303 4.73515C13.2839 4.9439 12.8095 5.35937 12.4944 5.9051C12.1794 6.45082 12.0567 7.06943 12.1491 7.64703C12.2481 8.26551 12.5774 8.76478 13.0765 9.05289C13.3568 9.21476 13.6749 9.29941 13.9986 9.29823C14.2584 9.29662 14.5157 9.24743 14.7577 9.1531C15.3041 8.94438 15.7786 8.52888 16.0936 7.98315C16.765 6.82037 16.5039 5.40828 15.5115 4.83533ZM15.1735 7.4519C14.9801 7.78695 14.6978 8.03863 14.3786 8.16052C14.0982 8.2677 13.8244 8.25784 13.6078 8.13273C13.3912 8.00762 13.2459 7.77556 13.1983 7.47909C13.1443 7.14172 13.2211 6.7714 13.4146 6.43651C13.608 6.10163 13.8903 5.84981 14.2095 5.72786C14.3298 5.68049 14.4577 5.6555 14.5869 5.65411C14.7247 5.65261 14.8605 5.68764 14.9803 5.75565C15.457 6.03074 15.5455 6.80759 15.1735 7.4519Z" fill="black"/>
<path id="Vector_5" d="M10.4021 5.8626C10.5296 5.8904 10.6597 5.90443 10.7902 5.90447C11.2259 5.90447 11.6568 5.74746 12.034 5.44587C12.4908 5.08064 12.8161 4.54036 12.95 3.92457C13.2351 2.61255 12.5562 1.34711 11.4366 1.10373C10.8735 0.981347 10.294 1.1293 9.80473 1.52047C9.34786 1.8857 9.02253 2.42598 8.88872 3.04173C8.60351 4.35375 9.28241 5.61919 10.4021 5.8626ZM9.92699 3.26745C10.0091 2.88936 10.2013 2.56354 10.4682 2.35035C10.6532 2.20246 10.8563 2.12519 11.0538 2.12519C11.1066 2.1251 11.1593 2.13066 11.2109 2.1418C11.7488 2.25874 12.0697 2.97187 11.9117 3.69869C11.8295 4.07677 11.6373 4.4026 11.3705 4.61583C11.1361 4.80329 10.8725 4.87727 10.6279 4.82418C10.0899 4.7074 9.76894 3.99433 9.92699 3.26745Z" fill="black"/>
</g>
</svg>
